<svg xmlns="http://www.w3.org/2000/svg" version="1.1" xmlns:xlink="http://www.w3.org/1999/xlink" xmlns:svgjs="http://svgjs.dev/svgjs" viewBox="0 0 800 800" opacity="1"><defs><linearGradient x1="50%" y1="0%" x2="50%" y2="100%" id="cccoil-grad"><stop stop-color="hsl(230, 55%, 50%)" stop-opacity="1" offset="0%"></stop><stop stop-color="hsl(230, 55%, 70%)" stop-opacity="1" offset="100%"></stop></linearGradient></defs><g stroke="url(#cccoil-grad)" fill="none" stroke-linecap="round"><circle r="369" cx="400" cy="400" stroke-width="10" stroke-dasharray="2318 2318" transform="rotate(360, 400, 400)" opacity="0.97"></circle><circle r="348.5" cx="400" cy="400" stroke-width="10" stroke-dasharray="2061 2190" transform="rotate(339, 400, 400)" opacity="0.45"></circle><circle r="328" cx="400" cy="400" stroke-width="10" stroke-dasharray="1818 2061" transform="rotate(318, 400, 400)" opacity="0.24"></circle><circle r="307.5" cx="400" cy="400" stroke-width="10" stroke-dasharray="1591 1932" transform="rotate(296, 400, 400)" opacity="0.99"></circle><circle r="287" cx="400" cy="400" stroke-width="10" stroke-dasharray="1379 1803" transform="rotate(275, 400, 400)" opacity="0.97"></circle><circle r="266.5" cx="400" cy="400" stroke-width="10" stroke-dasharray="1182 1674" transform="rotate(254, 400, 400)" opacity="0.99"></circle><circle r="246" cx="400" cy="400" stroke-width="10" stroke-dasharray="1000 1546" transform="rotate(233, 400, 400)" opacity="0.81"></circle><circle r="225.5" cx="400" cy="400" stroke-width="10" stroke-dasharray="833 1417" transform="rotate(212, 400, 400)" opacity="0.31"></circle><circle r="205" cx="400" cy="400" stroke-width="10" stroke-dasharray="682 1288" transform="rotate(191, 400, 400)" opacity="0.71"></circle><circle r="184.5" cx="400" cy="400" stroke-width="10" stroke-dasharray="546 1159" transform="rotate(169, 400, 400)" opacity="0.46"></circle><circle r="164" cx="400" cy="400" stroke-width="10" stroke-dasharray="424 1030" transform="rotate(148, 400, 400)" opacity="0.85"></circle><circle r="143.5" cx="400" cy="400" stroke-width="10" stroke-dasharray="318 902" transform="rotate(127, 400, 400)" opacity="0.36"></circle><circle r="123" cx="400" cy="400" stroke-width="10" stroke-dasharray="227 773" transform="rotate(106, 400, 400)" opacity="0.51"></circle><circle r="102.5" cx="400" cy="400" stroke-width="10" stroke-dasharray="152 644" transform="rotate(85, 400, 400)" opacity="0.25"></circle><circle r="82" cx="400" cy="400" stroke-width="10" stroke-dasharray="91 515" transform="rotate(64, 400, 400)" opacity="0.44"></circle><circle r="61.5" cx="400" cy="400" stroke-width="10" stroke-dasharray="45 386" transform="rotate(42, 400, 400)" opacity="0.83"></circle><circle r="41" cx="400" cy="400" stroke-width="10" stroke-dasharray="15 258" transform="rotate(21, 400, 400)" opacity="0.29"></circle><circle r="20.5" cx="400" cy="400" stroke-width="10" stroke-dasharray="0 129" opacity="0.28"></circle></g></svg>